<svg width="124" height="48" viewBox="0 0 124 48" fill="none" xmlns="http://www.w3.org/2000/svg">
<path d="M0 4C0 1.79086 1.79086 0 4 0H120C122.209 0 124 1.79086 124 4V44C124 46.2091 122.209 48 120 48H4C1.79086 48 0 46.2091 0 44V4Z" fill="#95BF46"/>
<path d="M23.648 18.496C23.2533 18.2933 22.8213 18.1173 22.352 17.968C21.8827 17.8187 21.4293 17.744 20.992 17.744C20.3627 17.744 19.8613 17.888 19.488 18.176C19.1253 18.464 18.944 18.8533 18.944 19.344C18.944 19.696 19.0613 19.9947 19.296 20.24C19.5413 20.4853 19.8507 20.704 20.224 20.896C20.608 21.0773 21.0133 21.248 21.44 21.408C21.92 21.5893 22.384 21.808 22.832 22.064C23.28 22.32 23.648 22.6667 23.936 23.104C24.2347 23.5307 24.384 24.1067 24.384 24.832C24.384 25.4507 24.2293 26.0107 23.92 26.512C23.6107 27.0027 23.1733 27.3973 22.608 27.696C22.0427 27.984 21.3707 28.128 20.592 28.128C19.824 28.128 19.1093 28.0053 18.448 27.76C17.7973 27.5147 17.2427 27.232 16.784 26.912L17.472 25.68C17.8453 25.968 18.304 26.2187 18.848 26.432C19.4027 26.6453 19.9307 26.752 20.432 26.752C20.8053 26.752 21.168 26.688 21.52 26.56C21.8827 26.432 22.1813 26.2293 22.416 25.952C22.6507 25.664 22.768 25.296 22.768 24.848C22.768 24.464 22.6613 24.1387 22.448 23.872C22.2347 23.6053 21.9573 23.3813 21.616 23.2C21.2853 23.008 20.9227 22.8373 20.528 22.688C20.1653 22.56 19.7973 22.4107 19.424 22.24C19.0507 22.0693 18.704 21.8667 18.384 21.632C18.0747 21.3867 17.824 21.088 17.632 20.736C17.44 20.384 17.344 19.9573 17.344 19.456C17.344 18.848 17.488 18.32 17.776 17.872C18.0747 17.4133 18.48 17.056 18.992 16.8C19.504 16.5333 20.096 16.3893 20.768 16.368C21.504 16.368 22.1547 16.4587 22.72 16.64C23.296 16.8213 23.8027 17.04 24.24 17.296L23.648 18.496ZM28.3845 23.904C28.3845 24.416 28.5072 24.88 28.7525 25.296C28.9978 25.7013 29.3285 26.0267 29.7445 26.272C30.1712 26.5067 30.6405 26.624 31.1525 26.624C31.6965 26.624 32.1765 26.5067 32.5925 26.272C33.0192 26.0267 33.3552 25.7013 33.6005 25.296C33.8565 24.88 33.9845 24.416 33.9845 23.904V16.432H35.5045V23.952C35.5045 24.7947 35.3072 25.5307 34.9125 26.16C34.5285 26.7893 34.0058 27.2747 33.3445 27.616C32.6938 27.9573 31.9632 28.128 31.1525 28.128C30.3418 28.128 29.6112 27.9573 28.9605 27.616C28.3098 27.2747 27.7925 26.7893 27.4085 26.16C27.0245 25.5307 26.8325 24.7947 26.8325 23.952V16.432H28.3845V23.904ZM41.6873 16.432C42.8393 16.432 43.7459 16.672 44.4073 17.152C45.0793 17.6213 45.4153 18.352 45.4153 19.344C45.4153 19.9627 45.2766 20.496 44.9993 20.944C44.7219 21.392 44.3379 21.744 43.8473 22C44.4873 22.2453 45.0046 22.6027 45.3993 23.072C45.7939 23.5413 45.9913 24.1013 45.9913 24.752C45.9913 25.52 45.8046 26.144 45.4313 26.624C45.0686 27.104 44.5939 27.456 44.0073 27.68C43.4206 27.8933 42.7966 28 42.1353 28H38.6953V16.432H41.6873ZM42.0073 21.488C42.6366 21.488 43.0953 21.312 43.3833 20.96C43.6713 20.5973 43.8153 20.1653 43.8153 19.664C43.8153 19.056 43.6286 18.6133 43.2553 18.336C42.8819 18.0587 42.3806 17.92 41.7513 17.92H40.2473V21.488H42.0073ZM42.0713 26.56C42.7113 26.56 43.2553 26.416 43.7033 26.128C44.1619 25.8293 44.3913 25.376 44.3913 24.768C44.3913 24.32 44.2686 23.968 44.0233 23.712C43.7779 23.456 43.4686 23.2747 43.0953 23.168C42.7326 23.0507 42.3539 22.992 41.9593 22.992H40.2473V26.56H42.0713ZM48.6015 28V16.064H48.6175L54.3135 24.144L60.0895 16.064H60.1055V28H58.5695V20.528L54.3135 26.544H54.2815L50.1055 20.736V28H48.6015ZM63.4296 16.432H64.9816V28H63.4296V16.432ZM67.4566 16.432H75.1366V17.92H72.0326V28H70.4806V17.92H67.4566V16.432Z" fill="white"/>
<path d="M93 30L99 24L93 18" stroke="white" stroke-width="2" stroke-linecap="round" stroke-linejoin="round"/>
</svg>
